; NON-PLATED HOLES START AT T1
; THROUGH (PLATED) HOLES START AT T100
M48
INCH
T100C0.035433
T101C0.052000
T102C0.040000
T103C0.038000
%
T100
X012716Y017781
X010157Y017781
T101
X015157Y021781
X012157Y021781
T102
X007057Y004781
X013937Y031781
X007057Y008781
X012157Y029221
X007157Y005781
X007157Y009781
X012157Y031781
X007057Y006781
X013937Y029221
X007157Y007781
T103
X008158Y007781
X026157Y016781
X026157Y013781
X020157Y020781
X020157Y024781
X020157Y013781
X017157Y004781
X008158Y011781
X026157Y011781
X017157Y009781
X021157Y024781
X017157Y005781
X008158Y009781
X026157Y018781
X008158Y005781
X013157Y026781
X017157Y011781
X014157Y034781
X022157Y024781
X015157Y034781
X008158Y004781
X017157Y007781
X020157Y012781
X020157Y014781
X026157Y012781
X017157Y006781
X008158Y010781
X008158Y008781
X020157Y015781
X020157Y019781
X006157Y021781
X013157Y024781
X004157Y021781
X017157Y008781
X017157Y010781
X008158Y006781
X005157Y021781
X026157Y017781
X013157Y025781
T00
M30
