G04 MADE WITH FRITZING*
G04 WWW.FRITZING.ORG*
G04 SINGLE SIDED*
G04 HOLES NOT PLATED*
G04 CONTOUR ON CENTER OF CONTOUR VECTOR*
%ASAXBY*%
%FSLAX23Y23*%
%MOIN*%
%OFA0B0*%
%SFA1.0B1.0*%
%ADD10C,0.078000*%
%ADD11C,0.074000*%
%ADD12C,0.092000*%
%ADD13R,0.078000X0.078000*%
%ADD14R,0.092000X0.092000*%
%ADD15C,0.024000*%
%LNCOPPER0*%
G90*
G70*
G54D10*
X1316Y2678D03*
X1316Y2578D03*
X1316Y2478D03*
G54D11*
X706Y478D03*
X716Y578D03*
X706Y678D03*
X716Y778D03*
X706Y878D03*
X716Y978D03*
G54D10*
X2016Y2478D03*
X2116Y2478D03*
X2216Y2478D03*
X1516Y3478D03*
X1416Y3478D03*
X2016Y1578D03*
X2016Y1478D03*
X2016Y1378D03*
X2016Y1278D03*
X2016Y2078D03*
X2016Y1978D03*
G54D12*
X1216Y2178D03*
X1516Y2178D03*
G54D11*
X1394Y3178D03*
X1394Y2922D03*
X1216Y3178D03*
X1216Y2922D03*
G54D10*
X2616Y1378D03*
X2616Y1278D03*
X2616Y1178D03*
G54D11*
X1016Y1778D03*
X1272Y1778D03*
G54D10*
X2616Y1878D03*
X2616Y1778D03*
X2616Y1678D03*
X616Y2178D03*
X516Y2178D03*
X416Y2178D03*
X816Y1178D03*
X816Y1078D03*
X816Y978D03*
X816Y878D03*
X816Y778D03*
X816Y678D03*
X816Y578D03*
X816Y478D03*
X1716Y478D03*
X1716Y578D03*
X1716Y678D03*
X1716Y778D03*
X1716Y878D03*
X1716Y978D03*
X1716Y1078D03*
X1716Y1178D03*
G54D13*
X1316Y2678D03*
X2016Y2478D03*
G54D14*
X1216Y2178D03*
G54D13*
X2616Y1378D03*
X2616Y1878D03*
X616Y2178D03*
G54D15*
X1414Y3459D02*
X1395Y3198D01*
D02*
X1114Y2676D02*
X1017Y2676D01*
D02*
X1017Y2676D02*
X1017Y3179D01*
D02*
X1017Y3179D02*
X1196Y3178D01*
D02*
X1297Y2678D02*
X1114Y2676D01*
D02*
X1515Y2476D02*
X1516Y3459D01*
D02*
X1335Y2478D02*
X1515Y2476D01*
D02*
X416Y2579D02*
X1297Y2578D01*
D02*
X416Y2197D02*
X416Y2579D01*
D02*
X726Y478D02*
X797Y478D01*
D02*
X1515Y2476D02*
X1997Y2478D01*
D02*
X416Y3677D02*
X2115Y3677D01*
D02*
X2115Y3677D02*
X2116Y2497D01*
D02*
X416Y2579D02*
X416Y3677D01*
D02*
X2217Y880D02*
X2216Y2459D01*
D02*
X1735Y878D02*
X2217Y880D01*
D02*
X1017Y2476D02*
X1297Y2478D01*
D02*
X1017Y2476D02*
X514Y2476D01*
D02*
X514Y2476D02*
X516Y2197D01*
D02*
X1697Y578D02*
X1017Y577D01*
D02*
X1017Y577D02*
X1016Y1760D01*
D02*
X616Y1080D02*
X616Y2159D01*
D02*
X797Y1078D02*
X616Y1080D01*
D02*
X416Y479D02*
X416Y2159D01*
D02*
X686Y478D02*
X416Y479D01*
D02*
X2016Y1259D02*
X2017Y1080D01*
D02*
X2016Y1597D02*
X2016Y1959D01*
D02*
X2016Y2097D02*
X2016Y2459D01*
D02*
X2017Y1080D02*
X1735Y1078D01*
D02*
X1697Y778D02*
X1515Y777D01*
D02*
X1515Y777D02*
X1516Y2152D01*
D02*
X1269Y1796D02*
X1219Y2152D01*
D02*
X1017Y2476D02*
X1016Y1796D01*
G04 End of Copper0*
M02*