G04 MADE WITH FRITZING*
G04 WWW.FRITZING.ORG*
G04 SINGLE SIDED*
G04 HOLES NOT PLATED*
G04 CONTOUR ON CENTER OF CONTOUR VECTOR*
%ASAXBY*%
%FSLAX23Y23*%
%MOIN*%
%OFA0B0*%
%SFA1.0B1.0*%
%ADD10C,0.088000*%
%ADD11C,0.084000*%
%ADD12C,0.102000*%
%ADD13R,0.088000X0.088000*%
%ADD14R,0.102000X0.102000*%
%LNMASK0*%
G90*
G70*
G54D10*
X1316Y2678D03*
X1316Y2578D03*
X1316Y2478D03*
G54D11*
X706Y478D03*
X716Y578D03*
X706Y678D03*
X716Y778D03*
X706Y878D03*
X716Y978D03*
G54D10*
X2016Y2478D03*
X2116Y2478D03*
X2216Y2478D03*
X1516Y3478D03*
X1416Y3478D03*
X2016Y1578D03*
X2016Y1478D03*
X2016Y1378D03*
X2016Y1278D03*
X2016Y2078D03*
X2016Y1978D03*
G54D12*
X1216Y2178D03*
X1516Y2178D03*
G54D11*
X1394Y3178D03*
X1394Y2922D03*
X1216Y3178D03*
X1216Y2922D03*
G54D10*
X2616Y1378D03*
X2616Y1278D03*
X2616Y1178D03*
G54D11*
X1016Y1778D03*
X1272Y1778D03*
G54D10*
X2616Y1878D03*
X2616Y1778D03*
X2616Y1678D03*
X616Y2178D03*
X516Y2178D03*
X416Y2178D03*
X816Y1178D03*
X816Y1078D03*
X816Y978D03*
X816Y878D03*
X816Y778D03*
X816Y678D03*
X816Y578D03*
X816Y478D03*
X1716Y478D03*
X1716Y578D03*
X1716Y678D03*
X1716Y778D03*
X1716Y878D03*
X1716Y978D03*
X1716Y1078D03*
X1716Y1178D03*
G54D13*
X1316Y2678D03*
X2016Y2478D03*
G54D14*
X1216Y2178D03*
G54D13*
X2616Y1378D03*
X2616Y1878D03*
X616Y2178D03*
G04 End of Mask0*
M02*